<svg xmlns="http://www.w3.org/2000/svg" width="20" height="22" viewBox="0 0 20 22">
  <defs>
    <style>
      .cls-1 {
        fill: #9f9f9f;
        fill-rule: evenodd;
      }
    </style>
  </defs>
  <path id="calendar.svg_200_calendar.png" data-name="calendar.svg, 200% calendar.png" class="cls-1" d="M741.538,406.885H745v3.535h-3.461v-3.535Zm4.23,0h3.845v3.535h-3.845v-3.535Zm-4.23-4.715H745V406.1h-3.461V402.17Zm4.23,0h3.845V406.1h-3.845V402.17Zm-4.23-4.321H745v3.535h-3.461v-3.535Zm8.844,9.036h3.846v3.535h-3.846v-3.535Zm-4.614-9.036h3.845v3.535h-3.845v-3.535ZM755,406.885h3.461v3.535H755v-3.535Zm-4.615-4.715h3.846V406.1h-3.846V402.17Zm-4.344-6.4a0.364,0.364,0,0,1-.27.117H745a0.363,0.363,0,0,1-.27-0.117,0.379,0.379,0,0,1-.115-0.276v-3.536a0.379,0.379,0,0,1,.115-0.276,0.363,0.363,0,0,1,.27-0.117h0.769a0.364,0.364,0,0,1,.27.117,0.382,0.382,0,0,1,.114.276v3.536A0.382,0.382,0,0,1,746.038,395.768Zm8.959,6.4h3.461V406.1H755V402.17Zm-4.615-4.321h3.846v3.535h-3.846v-3.535Zm4.615,0h3.461v3.535H755v-3.535Zm0.27-2.081a0.364,0.364,0,0,1-.27.117h-0.769a0.367,0.367,0,0,1-.271-0.117,0.382,0.382,0,0,1-.114-0.276v-3.536a0.382,0.382,0,0,1,.114-0.276,0.367,0.367,0,0,1,.271-0.117H755a0.364,0.364,0,0,1,.27.117,0.382,0.382,0,0,1,.114.276v3.536A0.382,0.382,0,0,1,755.267,395.768Zm4.272-2.167a1.462,1.462,0,0,0-1.081-.466H756.92v-1.179a1.913,1.913,0,0,0-.565-1.387,1.831,1.831,0,0,0-1.358-.577h-0.769a1.83,1.83,0,0,0-1.358.577,1.909,1.909,0,0,0-.565,1.387v1.179h-4.614v-1.179a1.913,1.913,0,0,0-.565-1.387,1.831,1.831,0,0,0-1.358-.577H745a1.83,1.83,0,0,0-1.358.577,1.909,1.909,0,0,0-.565,1.387v1.179h-1.538a1.464,1.464,0,0,0-1.082.466,1.527,1.527,0,0,0-.456,1.105V410.42a1.527,1.527,0,0,0,.456,1.1,1.465,1.465,0,0,0,1.082.467h16.92a1.463,1.463,0,0,0,1.081-.467,1.524,1.524,0,0,0,.457-1.1V394.706A1.524,1.524,0,0,0,759.539,393.6Z" transform="translate(-740 -390)"/>
</svg>
