<svg xmlns="http://www.w3.org/2000/svg" width="10.38" height="7.97" viewBox="0 0 10.38 7.97">
    <path fill="#acacac" d="M1063,1797.55l-0.91-.91a0.6,0.6,0,0,0-.45-0.19,0.619,0.619,0,0,0-.46.19l-4.39,4.4-1.97-1.98a0.66,0.66,0,0,0-.46-0.19,0.619,0.619,0,0,0-.45.19l-0.91.91a0.619,0.619,0,0,0-.19.46,0.583,0.583,0,0,0,.19.45l2.42,2.43,0.91,0.91a0.66,0.66,0,0,0,.46.19,0.619,0.619,0,0,0,.45-0.19l0.91-.91,4.85-4.85a0.619,0.619,0,0,0,.19-0.46,0.6,0.6,0,0,0-.19-0.45h0Z" transform="translate(-1052.81 -1796.44)"/>
</svg>