<svg xmlns="http://www.w3.org/2000/svg" viewBox="0 0 52 52"><defs><style>.cls-1{fill:#56a7fa;}.cls-2{fill:#d9dce0;}.cls-3{fill:none;}</style></defs><g id="레이어_2" data-name="레이어 2"><g id="레이어_1-2" data-name="레이어 1"><path class="cls-1" d="M34.69,35.73a4.14,4.14,0,0,0-1.83-.43H19.44a4.09,4.09,0,0,0-1.82.43l-4.19,2.09a4.55,4.55,0,0,0-2.5,4.06v2.33A1.79,1.79,0,0,0,12.72,46H39.59a1.79,1.79,0,0,0,1.79-1.79V41.88a4.54,4.54,0,0,0-2.51-4.06Z"/><path class="cls-2" d="M26,12.82a9.21,9.21,0,0,1,9.15,8.07H42a16,16,0,0,0-32,0h6.85A9.21,9.21,0,0,1,26,12.82Z"/><path class="cls-2" d="M35,24a9.23,9.23,0,0,1-18,0H10.08a16,16,0,0,0,31.84,0Z"/><path class="cls-1" d="M26,16.59a5.3,5.3,0,0,0-1.83.32,2.1,2.1,0,0,1-3.1,2.8,5.53,5.53,0,0,0-.52,2.34A5.45,5.45,0,1,0,26,16.59Z"/><rect class="cls-3" width="52" height="52"/></g></g></svg>